# File units = meters
mtllib plate_50cm.mtl
g Part 1
v -0.25 -0.25 0.008 
v -0.25 -0.25 0 
v 0.25 -0.25 0 
v 0.25 -0.25 0.008 
v 0.25 0.25 0 
v 0.25 0.25 0.008 
v -0.25 0.25 0 
v -0.25 0.25 0.008 
v 0 0.025 0.008 
v 0.018 0.005 0.008 
v -0.018 0.005 0.008 
v -0.008 -0.025 0.008 
v 0.008 -0.025 0.008 
v 0.008 0.005 0.008 
v -0.008 0.005 0.008 
v 0 0.025 0 
v -0.018 0.005 0 
v 0.018 0.005 0 
v 0.008 -0.025 0 
v -0.008 -0.025 0 
v -0.008 0.005 0 
v 0.008 0.005 0 
vn 1.11022e-16 -1 0 
vn 1 -5.55112e-17 0 
vn -1.66533e-16 1 0 
vn -1 5.55112e-17 0 
vn 0 0 1 
vn 0 0 -1 
vn 0 1 0 
vn 0.743294 -0.668965 0 
vn 1 0 0 
vn -1 0 0 
vn 1.73472e-16 1 0 
vn -0.743294 -0.668965 0 
usemtl 0.615686_0.811765_0.929412_0.000000_0.000000
o mesh0
f 1//1 2//1 3//1 
f 3//1 4//1 1//1 
o mesh1
f 4//2 3//2 5//2 
f 5//2 6//2 4//2 
o mesh2
f 6//3 5//3 7//3 
f 7//3 8//3 6//3 
o mesh3
f 8//4 7//4 2//4 
f 2//4 1//4 8//4 
o mesh4
f 6//5 9//5 10//5 
f 11//5 1//5 12//5 
f 1//5 4//5 13//5 
f 6//5 8//5 9//5 
f 8//5 1//5 11//5 
f 13//5 12//5 1//5 
f 10//5 14//5 13//5 
f 11//5 9//5 8//5 
f 13//5 4//5 10//5 
f 12//5 15//5 11//5 
f 10//5 4//5 6//5 
o mesh5
f 7//6 16//6 17//6 
f 18//6 3//6 19//6 
f 3//6 2//6 20//6 
f 7//6 5//6 16//6 
f 5//6 3//6 18//6 
f 20//6 19//6 3//6 
f 17//6 21//6 20//6 
f 18//6 16//6 5//6 
f 20//6 2//6 17//6 
f 19//6 22//6 18//6 
f 17//6 2//6 7//6 
o mesh6
f 13//7 19//7 20//7 
f 20//7 12//7 13//7 
o mesh7
f 11//8 17//8 16//8 
f 16//8 9//8 11//8 
o mesh8
f 15//7 21//7 17//7 
f 17//7 11//7 15//7 
o mesh9
f 12//9 20//9 21//9 
f 21//9 15//9 12//9 
o mesh10
f 22//10 19//10 13//10 
f 13//10 14//10 22//10 
o mesh11
f 18//11 22//11 14//11 
f 14//11 10//11 18//11 
o mesh12
f 16//12 18//12 10//12 
f 10//12 9//12 16//12 
